<?xml version="1.0" standalone="no"?>
<!DOCTYPE svg PUBLIC "-//W3C//DTD SVG 20010904//EN"
 "http://www.w3.org/TR/2001/REC-SVG-20010904/DTD/svg10.dtd">
<svg version="1.0" xmlns="http://www.w3.org/2000/svg"
 width="256.000000pt" height="256.000000pt" viewBox="0 0 256.000000 256.000000"
 preserveAspectRatio="xMidYMid meet">

<g transform="translate(0.000000,256.000000) scale(0.100000,-0.100000)"
fill="#000000" stroke="none">
<path d="M0 1436 l0 -824 323 -4 c309 -5 326 -6 422 -31 161 -43 335 -137 419
-226 17 -17 33 -31 38 -31 4 0 8 369 8 819 l0 819 -62 56 c-122 111 -282 188
-465 225 -88 18 -138 21 -392 21 l-291 0 0 -824z"/>
<path d="M1871 2239 c-178 -38 -340 -116 -459 -225 l-62 -56 0 -819 c0 -450 4
-819 8 -819 5 0 21 14 38 31 84 89 258 183 419 226 96 25 113 26 418 31 l317
4 0 824 0 824 -292 -1 c-251 0 -306 -3 -387 -20z"/>
</g>
</svg>
