<?xml version="1.0" standalone="no"?>
<!DOCTYPE svg PUBLIC "-//W3C//DTD SVG 20010904//EN"
 "http://www.w3.org/TR/2001/REC-SVG-20010904/DTD/svg10.dtd">
<svg version="1.0" xmlns="http://www.w3.org/2000/svg"
 width="256.000000pt" height="256.000000pt" viewBox="0 0 256.000000 256.000000"
 preserveAspectRatio="xMidYMid meet">

<g transform="translate(0.000000,256.000000) scale(0.100000,-0.100000)"
fill="#000000" stroke="none">
<path d="M640 1755 l-635 -635 98 -97 97 -98 540 540 540 540 540 -540 540
-540 97 98 98 97 -635 635 c-349 349 -637 635 -640 635 -3 0 -291 -286 -640
-635z"/>
<path d="M852 1327 l-422 -422 2 -370 3 -370 467 -3 468 -2 2 297 3 298 170 0
170 0 5 -295 5 -295 200 0 200 0 3 370 2 370 -422 422 c-233 233 -425 423
-428 423 -3 0 -195 -190 -428 -423z"/>
</g>
</svg>
