<svg version="1.0" xmlns="http://www.w3.org/2000/svg"
width="100" height="100" viewBox="0 0 256.000000 256.000000"
preserveAspectRatio="xMidYMid meet">

    <g transform="translate(0.000000,256.000000) scale(0.100000,-0.100000)"
    fill="#000000" stroke="none">
    <path d="M1106 2527 c-17 -17 -31 -56 -50 -139 -38 -164 -46 -188 -58 -188 -5
    0 -50 -16 -100 -36 l-89 -36 -107 65 c-149 90 -170 100 -200 92 -33 -8 -206
    -177 -223 -217 -15 -36 -11 -44 82 -200 l71 -116 -35 -89 c-19 -48 -37 -96
    -40 -105 -4 -10 -12 -18 -19 -18 -7 0 -74 -14 -148 -32 -115 -27 -139 -36
    -162 -61 -28 -29 -28 -30 -28 -167 0 -137 0 -138 28 -167 23 -25 46 -34 144
    -57 165 -38 188 -46 188 -58 0 -6 16 -51 36 -100 l36 -90 -65 -107 c-90 -148
    -100 -169 -92 -199 8 -33 177 -206 217 -223 36 -15 44 -11 200 83 l117 70 90
    -36 c49 -20 94 -36 99 -36 12 0 20 -24 58 -188 23 -98 32 -121 57 -144 29 -28
    30 -28 167 -28 137 0 138 0 167 28 25 23 34 47 61 162 18 74 32 141 32 148 0
    7 8 15 18 19 9 3 57 21 105 40 l89 35 116 -70 c157 -95 164 -98 200 -83 40 17
    209 190 217 223 8 30 6 35 -87 190 l-70 117 36 89 c20 50 36 95 36 100 0 12
    24 20 188 58 165 38 162 34 162 224 0 190 3 186 -162 224 -164 38 -188 46
    -188 58 0 5 -16 50 -36 100 l-36 89 70 117 c93 155 95 160 87 190 -8 33 -177
    206 -217 223 -36 15 -43 12 -200 -83 l-116 -70 -89 35 c-48 19 -95 37 -104 40
    -9 3 -19 20 -23 39 -3 18 -18 84 -32 147 -38 164 -34 161 -224 161 -144 0
    -152 -1 -174 -23z m242 -1019 c71 -18 146 -96 162 -171 21 -91 2 -157 -64
    -223 -44 -43 -62 -54 -109 -64 -91 -21 -157 -2 -223 64 -43 44 -54 62 -64 109
    -21 91 -2 157 64 222 70 70 136 88 234 63z"/>
    </g>
</svg>
